<?xml version="1.0" encoding="UTF-8" standalone="no"?>
<!-- Created with Inkscape (http://www.inkscape.org/) -->

<svg
   xmlns:dc="http://purl.org/dc/elements/1.1/"
   xmlns:cc="http://creativecommons.org/ns#"
   xmlns:rdf="http://www.w3.org/1999/02/22-rdf-syntax-ns#"
   xmlns:svg="http://www.w3.org/2000/svg"
   xmlns="http://www.w3.org/2000/svg"
   xmlns:sodipodi="http://sodipodi.sourceforge.net/DTD/sodipodi-0.dtd"
   xmlns:inkscape="http://www.inkscape.org/namespaces/inkscape"
   width="64"
   height="64"
   viewBox="0 0 64 64"
   version="1.1"
   id="SVGRoot"
   inkscape:version="0.92.4 (5da689c313, 2019-01-14)"
   sodipodi:docname="drive-auto.svg">
  <defs
     id="defs3726" />
  <sodipodi:namedview
     id="base"
     pagecolor="#ffffff"
     bordercolor="#666666"
     borderopacity="1.0"
     inkscape:pageopacity="0.0"
     inkscape:pageshadow="2"
     inkscape:zoom="11.313708"
     inkscape:cx="39.12914"
     inkscape:cy="29.214276"
     inkscape:document-units="px"
     inkscape:current-layer="layer1"
     showgrid="false"
     inkscape:window-width="1920"
     inkscape:window-height="1016"
     inkscape:window-x="0"
     inkscape:window-y="36"
     inkscape:window-maximized="1"
     inkscape:grid-bbox="true"
     showguides="true" />
  <metadata
     id="metadata3729">
    <rdf:RDF>
      <cc:Work
         rdf:about="">
        <dc:format>image/svg+xml</dc:format>
        <dc:type
           rdf:resource="http://purl.org/dc/dcmitype/StillImage" />
        <dc:title></dc:title>
      </cc:Work>
    </rdf:RDF>
  </metadata>
  <g
     inkscape:label="Layer 1"
     inkscape:groupmode="layer"
     id="layer1"
     transform="translate(0,-64)">
    <path
       id="path68"
       sodipodi:type="arc"
       sodipodi:cx="32.084972"
       sodipodi:cy="95.959221"
       sodipodi:rx="28.726213"
       sodipodi:ry="28.770409"
       sodipodi:start="0"
       sodipodi:end="6.1681856"
       sodipodi:open="true"
       d="M 60.811186,95.959221 A 28.726213,28.770409 0 0 1 32.910735,124.71774 28.726213,28.770409 0 0 1 3.4062336,97.612604 28.726213,28.770409 0 0 1 29.610413,67.295758 28.726213,28.770409 0 0 1 60.621444,92.65792" />
    <path
       style="stroke-width:0.08838835;fill:#008000"
       d="M 30.078173,60.629622 C 24.818569,60.166025 20.352734,58.632452 16.201202,55.864255 13.30659,53.93416 10.690791,51.384173 8.6324372,48.485918 4.5841409,42.785736 2.752374,35.488867 3.6113425,28.484317 4.0254662,25.107302 4.9669279,22.045328 6.5508937,18.923833 13.690033,4.8548509 30.832715,-0.78661983 44.944489,6.2889169 c 3.33602,1.6726553 6.399839,4.0732021 8.901231,6.9742431 3.736567,4.333563 6.172923,9.963848 6.740417,15.576735 0.168333,1.664925 0.145306,5.516089 -0.04057,6.785518 -0.484582,3.30938 -1.282498,5.989072 -2.591326,8.702615 -1.564229,3.243054 -3.324596,5.688523 -5.924209,8.229798 -4.471178,4.370839 -10.133209,7.103929 -16.38339,7.908342 -1.048662,0.134965 -4.68177,0.241609 -5.568466,0.163454 z"
       id="path89"
       inkscape:connector-curvature="0"
       transform="translate(0,64)" />
  </g>
</svg>
