<?xml version="1.0" encoding="UTF-8" standalone="no"?>
<!-- Uploaded to: SVG Repo, www.svgrepo.com, Generator: SVG Repo Mixer Tools -->

<svg
   fill="#000000"
   height="800px"
   width="800px"
   version="1.1"
   id="Capa_1"
   viewBox="0 0 214.367 214.367"
   xml:space="preserve"
   xmlns="http://www.w3.org/2000/svg"
   xmlns:svg="http://www.w3.org/2000/svg"><defs
   id="defs1" />
<path
   d="m 11.963,95.22 c 0,46.312 33.237,85.002 77.109,93.484 v 25.663 l 69.76,-40 -69.76,-40 v 23.494 c -27.176,-7.87 -47.109,-32.964 -47.109,-62.642 0,-35.962 29.258,-65.22 65.22,-65.22 35.962,0 65.22,29.258 65.22,65.22 0,9.686 -2.068,19.001 -6.148,27.688 l 27.154,12.754 c 5.968,-12.707 8.994,-26.313 8.994,-40.441 C 202.402,42.716 159.686,0 107.182,0 54.678,0 11.963,42.716 11.963,95.22 Z"
   id="path1" />
</svg>
